<?xml version="1.0"?>
<svg width="29" height="28" xmlns="http://www.w3.org/2000/svg" xmlns:svg="http://www.w3.org/2000/svg" version="1.1">
 <title>minus [#1468]</title>
 <desc>Created with Sketch.</desc>
 <g class="layer">
  <title>Layer 1</title>
  <g fill="none" fill-rule="evenodd" id="Page-1">
   <g fill="#000000" id="Dribbble-Light-Preview" transform="translate(-135.000000, -436.000000)">
    <g id="icons" transform="translate(56.000000, 160.000000)">
     <path d="m89.3,291l8.4,0l0,-2l-8.4,0l0,2zm6.3,-11l0,2l6.3,0l0,6l2.1,0l0,-8l-8.4,0zm6.3,18l-6.3,0l0,2l8.4,0l0,-8l-2.1,0l0,6zm-16.8,-6l-2.1,0l0,8l8.4,0l0,-2l-6.3,0l0,-6zm0,-4l-2.1,0l0,-8l8.4,0l0,2l-6.3,0l0,6z" id="minus-[#1468]"/>
    </g>
   </g>
  </g>
 </g>
</svg>