<?xml version="1.0"?>
<svg width="29" height="28" xmlns="http://www.w3.org/2000/svg" xmlns:svg="http://www.w3.org/2000/svg" version="1.1">
 <title>plus [#1469]</title>
 <desc>Created with Sketch.</desc>
 <g class="layer">
  <title>Layer 1</title>
  <g fill="none" fill-rule="evenodd" id="Page-1">
   <g fill="#000000" id="Dribbble-Light-Preview" transform="translate(-95.000000, -436.000000)">
    <g id="icons" transform="translate(56.000000, 160.000000)">
     <path d="m57.7,289l-3.15,0l0,-3l-2.1,0l0,3l-3.15,0l0,2l3.15,0l0,3l2.1,0l0,-3l3.15,0l0,-2zm-2.1,-9l0,2l6.3,0l0,6l2.1,0l0,-8l-8.4,0zm6.3,18l-6.3,0l0,2l8.4,0l0,-8l-2.1,0l0,6zm-16.8,-6l-2.1,0l0,8l8.4,0l0,-2l-6.3,0l0,-6zm0,-4l-2.1,0l0,-8l8.4,0l0,2l-6.3,0l0,6z" id="plus-[#1469]"/>
    </g>
   </g>
  </g>
 </g>
</svg>